<svg width="38" height="33" viewBox="0 0 38 33" fill="none" xmlns="http://www.w3.org/2000/svg">
<path fill-rule="evenodd" clip-rule="evenodd" d="M20.3309 0.0213309C23.805 0.209634 26.724 2.02398 29.5072 4.12817C32.9726 6.7481 37.8498 9.01345 37.9968 13.3772C38.1447 17.7649 33.0846 20.0302 30.1526 23.2767C26.9513 26.8213 25.0506 32.3503 20.3309 32.9377C15.4073 33.5506 11.3267 29.5226 7.74169 26.0662C4.04637 22.5035 -0.486224 18.5038 0.0422706 13.3772C0.556068 8.39319 5.94932 5.81693 10.1116 3.0769C13.2042 1.04108 16.6425 -0.178586 20.3309 0.0213309Z" fill="url(#paint0_linear_2_192)"/>
<path d="M13 21V20C13 18.6739 13.5268 17.4021 14.4645 16.4645C15.4021 15.5268 16.6739 15 18 15M18 15C19.3261 15 20.5979 15.5268 21.5355 16.4645C22.4732 17.4021 23 18.6739 23 20V21M18 15C18.7956 15 19.5587 14.6839 20.1213 14.1213C20.6839 13.5587 21 12.7956 21 12C21 11.2044 20.6839 10.4413 20.1213 9.87868C19.5587 9.31607 18.7956 9 18 9C17.2044 9 16.4413 9.31607 15.8787 9.87868C15.3161 10.4413 15 11.2044 15 12C15 12.7956 15.3161 13.5587 15.8787 14.1213C16.4413 14.6839 17.2044 15 18 15ZM7 21V20C7 19.2044 7.31607 18.4413 7.87868 17.8787C8.44129 17.3161 9.20435 17 10 17M10 17C10.5304 17 11.0391 16.7893 11.4142 16.4142C11.7893 16.0391 12 15.5304 12 15C12 14.4696 11.7893 13.9609 11.4142 13.5858C11.0391 13.2107 10.5304 13 10 13C9.46957 13 8.96086 13.2107 8.58579 13.5858C8.21071 13.9609 8 14.4696 8 15C8 15.5304 8.21071 16.0391 8.58579 16.4142C8.96086 16.7893 9.46957 17 10 17ZM29 21V20C29 19.2044 28.6839 18.4413 28.1213 17.8787C27.5587 17.3161 26.7956 17 26 17M26 17C26.5304 17 27.0391 16.7893 27.4142 16.4142C27.7893 16.0391 28 15.5304 28 15C28 14.4696 27.7893 13.9609 27.4142 13.5858C27.0391 13.2107 26.5304 13 26 13C25.4696 13 24.9609 13.2107 24.5858 13.5858C24.2107 13.9609 24 14.4696 24 15C24 15.5304 24.2107 16.0391 24.5858 16.4142C24.9609 16.7893 25.4696 17 26 17Z" stroke="white" stroke-linecap="round" stroke-linejoin="round"/>
<defs>
<linearGradient id="paint0_linear_2_192" x1="0" y1="16.5" x2="38" y2="16.5" gradientUnits="userSpaceOnUse">
<stop stop-color="#007BFF"/>
<stop offset="1" stop-color="#66A6FF"/>
</linearGradient>
</defs>
</svg>
