<svg width="38" height="33" viewBox="0 0 38 33" fill="none" xmlns="http://www.w3.org/2000/svg">
<path fill-rule="evenodd" clip-rule="evenodd" d="M20.3309 0.0213309C23.805 0.209634 26.724 2.02398 29.5072 4.12817C32.9726 6.7481 37.8498 9.01345 37.9968 13.3772C38.1447 17.7649 33.0846 20.0302 30.1526 23.2767C26.9513 26.8213 25.0506 32.3503 20.3309 32.9377C15.4073 33.5506 11.3267 29.5226 7.74169 26.0662C4.04637 22.5035 -0.486224 18.5038 0.0422706 13.3772C0.556068 8.39319 5.94932 5.81693 10.1116 3.0769C13.2042 1.04108 16.6425 -0.178586 20.3309 0.0213309Z" fill="url(#paint0_linear_2_250)"/>
<path d="M27.375 10.4375C27.375 10.0894 27.2367 9.75556 26.9906 9.50942C26.7444 9.26328 26.4106 9.125 26.0625 9.125H23.4375V7.8125H22.125V9.125H16.875V7.8125H15.5625V9.125H12.9375C12.5894 9.125 12.2556 9.26328 12.0094 9.50942C11.7633 9.75556 11.625 10.0894 11.625 10.4375V23.5625C11.625 23.9106 11.7633 24.2444 12.0094 24.4906C12.2556 24.7367 12.5894 24.875 12.9375 24.875H15.5625V23.5625H12.9375V10.4375H15.5625V11.75H16.875V10.4375H22.125V11.75H23.4375V10.4375H26.0625V14.375H27.375V10.4375Z" fill="white"/>
<path d="M22.7812 16.3438L24.454 19.5843L28.0312 20.1034L25.4062 22.626L26.0625 26.1875L22.7812 24.5062L19.5 26.1875L20.1562 22.626L17.5312 20.1034L21.2063 19.5843L22.7812 16.3438Z" fill="white"/>
<defs>
<linearGradient id="paint0_linear_2_250" x1="0" y1="16.5" x2="38" y2="16.5" gradientUnits="userSpaceOnUse">
<stop stop-color="#007BFF"/>
<stop offset="1" stop-color="#66A6FF"/>
</linearGradient>
</defs>
</svg>
