<svg width="38" height="33" viewBox="0 0 38 33" fill="none" xmlns="http://www.w3.org/2000/svg">
<path fill-rule="evenodd" clip-rule="evenodd" d="M20.3309 0.0213309C23.805 0.209634 26.724 2.02398 29.5072 4.12817C32.9726 6.7481 37.8498 9.01345 37.9968 13.3772C38.1447 17.7649 33.0846 20.0302 30.1526 23.2767C26.9513 26.8213 25.0506 32.3503 20.3309 32.9377C15.4073 33.5506 11.3267 29.5226 7.74169 26.0662C4.04637 22.5035 -0.486224 18.5038 0.0422706 13.3772C0.556068 8.39319 5.94932 5.81693 10.1116 3.0769C13.2042 1.04108 16.6425 -0.178586 20.3309 0.0213309Z" fill="url(#paint0_linear_2_213)"/>
<path d="M18.8958 23.6667C18.9514 23.6667 19.007 23.6529 19.0625 23.6251C19.1181 23.5973 19.1597 23.5695 19.1875 23.5417L26.0208 16.7084C26.1875 16.5417 26.3092 16.3542 26.3858 16.1459C26.4625 15.9376 26.5006 15.7292 26.5 15.5209C26.5 15.2987 26.462 15.0867 26.3858 14.8851C26.3097 14.6834 26.1881 14.5065 26.0208 14.3542L22.4792 10.8126C22.3264 10.6459 22.1492 10.5245 21.9475 10.4484C21.7458 10.3723 21.5345 10.334 21.3133 10.3334C21.105 10.3334 20.8967 10.3717 20.6883 10.4484C20.48 10.5251 20.2925 10.6465 20.1258 10.8126L19.8967 11.0417L21.4383 12.6042C21.6467 12.7987 21.7995 13.0209 21.8967 13.2709C21.9939 13.5209 22.0425 13.7848 22.0425 14.0626C22.0425 14.6459 21.8447 15.1356 21.4492 15.5317C21.0536 15.9279 20.5639 16.1256 19.98 16.1251C19.7022 16.1251 19.435 16.0765 19.1783 15.9792C18.9217 15.882 18.6958 15.7362 18.5008 15.5417L16.9375 14.0001L13.2917 17.6459C13.25 17.6876 13.2189 17.7329 13.1983 17.7817C13.1778 17.8306 13.1672 17.8826 13.1667 17.9376C13.1667 18.0487 13.2083 18.1495 13.2917 18.2401C13.375 18.3306 13.4722 18.3756 13.5833 18.3751C13.6389 18.3751 13.6945 18.3612 13.75 18.3334C13.8056 18.3056 13.8472 18.2779 13.875 18.2501L16.7083 15.4167L17.875 16.5834L15.0625 19.4167C15.0208 19.4584 14.9897 19.5037 14.9692 19.5526C14.9486 19.6015 14.9381 19.6534 14.9375 19.7084C14.9375 19.8195 14.9792 19.9167 15.0625 20.0001C15.1458 20.0834 15.2431 20.1251 15.3542 20.1251C15.4097 20.1251 15.4653 20.1112 15.5208 20.0834C15.5764 20.0556 15.6181 20.0279 15.6458 20.0001L18.4792 17.1876L19.6458 18.3542L16.8333 21.1876C16.7917 21.2154 16.7606 21.257 16.74 21.3126C16.7195 21.3681 16.7089 21.4237 16.7083 21.4792C16.7083 21.5904 16.75 21.6876 16.8333 21.7709C16.9167 21.8542 17.0139 21.8959 17.125 21.8959C17.1806 21.8959 17.2328 21.8854 17.2817 21.8642C17.3306 21.8431 17.3756 21.812 17.4167 21.7709L20.25 18.9584L21.4167 20.1251L18.5833 22.9584C18.5417 23.0001 18.5106 23.0451 18.49 23.0934C18.4695 23.1417 18.4589 23.194 18.4583 23.2501C18.4583 23.3612 18.5036 23.4584 18.5942 23.5417C18.6847 23.6251 18.7853 23.6667 18.8958 23.6667ZM18.875 25.3334C18.3611 25.3334 17.9064 25.1634 17.5108 24.8234C17.1153 24.4834 16.8825 24.0562 16.8125 23.5417C16.3403 23.4723 15.9445 23.2779 15.625 22.9584C15.3056 22.639 15.1111 22.2431 15.0417 21.7709C14.5695 21.7015 14.1772 21.5037 13.865 21.1776C13.5528 20.8515 13.3617 20.459 13.2917 20.0001C12.7639 19.9306 12.3333 19.7015 12 19.3126C11.6667 18.9237 11.5 18.4654 11.5 17.9376C11.5 17.6598 11.5522 17.3926 11.6567 17.1359C11.7611 16.8792 11.9103 16.6534 12.1042 16.4584L16.9375 11.6459L19.6667 14.3751C19.6945 14.4167 19.7361 14.4481 19.7917 14.4692C19.8472 14.4904 19.9028 14.5006 19.9583 14.5001C20.0833 14.5001 20.1875 14.462 20.2708 14.3859C20.3542 14.3098 20.3958 14.209 20.3958 14.0834C20.3958 14.0279 20.3853 13.9723 20.3642 13.9167C20.3431 13.8612 20.312 13.8195 20.2708 13.7917L17.2917 10.8126C17.1389 10.6459 16.962 10.5245 16.7608 10.4484C16.5597 10.3723 16.3478 10.334 16.125 10.3334C15.9167 10.3334 15.7083 10.3717 15.5 10.4484C15.2917 10.5251 15.1042 10.6465 14.9375 10.8126L12 13.7709C11.875 13.8959 11.7708 14.0417 11.6875 14.2084C11.6042 14.3751 11.5486 14.5417 11.5208 14.7084C11.4931 14.8751 11.4931 15.0454 11.5208 15.2192C11.5486 15.3931 11.6042 15.5562 11.6875 15.7084L10.4792 16.9167C10.2431 16.5973 10.0695 16.2467 9.95835 15.8651C9.84723 15.4834 9.80557 15.0979 9.83335 14.7084C9.86112 14.3195 9.95835 13.9412 10.125 13.5734C10.2917 13.2056 10.5208 12.8756 10.8125 12.5834L13.75 9.64591C14.0833 9.32647 14.455 9.08341 14.865 8.91675C15.275 8.75008 15.695 8.66675 16.125 8.66675C16.5556 8.66675 16.9758 8.75008 17.3858 8.91675C17.7958 9.08341 18.1603 9.32647 18.4792 9.64591L18.7083 9.87508L18.9375 9.64591C19.2708 9.32647 19.6425 9.08341 20.0525 8.91675C20.4625 8.75008 20.8825 8.66675 21.3125 8.66675C21.7431 8.66675 22.1633 8.75008 22.5733 8.91675C22.9833 9.08341 23.3478 9.32647 23.6667 9.64591L27.1875 13.1667C27.507 13.4862 27.75 13.8542 27.9167 14.2709C28.0833 14.6876 28.1667 15.1112 28.1667 15.5417C28.1667 15.9723 28.0833 16.3926 27.9167 16.8026C27.75 17.2126 27.507 17.577 27.1875 17.8959L20.3542 24.7084C20.1597 24.9029 19.9342 25.0556 19.6775 25.1667C19.4208 25.2779 19.1533 25.3334 18.875 25.3334Z" fill="white"/>
<defs>
<linearGradient id="paint0_linear_2_213" x1="0" y1="16.5" x2="38" y2="16.5" gradientUnits="userSpaceOnUse">
<stop stop-color="#007BFF"/>
<stop offset="1" stop-color="#66A6FF"/>
</linearGradient>
</defs>
</svg>
