<svg width="38" height="33" viewBox="0 0 38 33" fill="none" xmlns="http://www.w3.org/2000/svg">
<path fill-rule="evenodd" clip-rule="evenodd" d="M20.3309 0.0213309C23.805 0.209634 26.724 2.02398 29.5072 4.12817C32.9726 6.7481 37.8498 9.01345 37.9968 13.3772C38.1447 17.7649 33.0846 20.0302 30.1526 23.2767C26.9513 26.8213 25.0506 32.3503 20.3309 32.9377C15.4073 33.5506 11.3267 29.5226 7.74169 26.0662C4.04637 22.5035 -0.486224 18.5038 0.0422706 13.3772C0.556068 8.39319 5.94932 5.81693 10.1116 3.0769C13.2042 1.04108 16.6425 -0.178586 20.3309 0.0213309Z" fill="url(#paint0_linear_2_246)"/>
<g clip-path="url(#clip0_2_246)">
<path d="M28.5 14.3492V14.35V19.05H27.9375V16.15V15.2754L27.1838 15.7191L25.6338 16.6316L25.3875 16.7766V17.0625V20.6111C25.3863 20.7994 25.3368 20.9842 25.2437 21.1479C25.1511 21.3107 25.0184 21.4472 24.8583 21.5444L19.5544 24.6019C19.3922 24.691 19.2101 24.7377 19.025 24.7377C18.8399 24.7377 18.6579 24.691 18.4957 24.6019L13.1917 21.5443C13.0316 21.4472 12.899 21.3107 12.8063 21.1479C12.7132 20.9842 12.6637 20.7993 12.6625 20.611V17.1V16.8128L12.4144 16.6681L10.0177 15.27C10.0172 15.2697 10.0167 15.2694 10.0162 15.2691C9.85832 15.1751 9.72749 15.0417 9.63654 14.882C9.54532 14.7218 9.49734 14.5406 9.49734 14.3562C9.49734 14.1718 9.54532 13.9907 9.63654 13.8305L9.20205 13.583L9.63654 13.8305C9.72777 13.6702 9.85911 13.5365 10.0177 13.4425L18.452 8.44432C18.4524 8.44407 18.4528 8.44382 18.4533 8.44357C18.6193 8.34702 18.8079 8.29614 19 8.29614C19.192 8.29614 19.3806 8.34698 19.5466 8.44348C19.5471 8.44376 19.5476 8.44404 19.548 8.44432L27.9698 13.4424L27.9698 13.4425L27.977 13.4466C28.1361 13.5375 28.2683 13.6689 28.3602 13.8274C28.4521 13.9859 28.5003 14.166 28.5 14.3492ZM24.5871 21.0332L24.8389 20.8881L24.8375 20.5976L24.825 17.9851L24.8208 17.1094L24.0688 17.5581L19.5482 20.2554C19.3811 20.3501 19.1922 20.3999 19 20.3999C18.8077 20.3999 18.6188 20.3501 18.4516 20.2553L13.9807 17.5953L13.225 17.1457V18.025V20.6125V20.9003L13.474 21.0449L18.749 24.1074L18.999 24.2526L19.2496 24.1082L24.5871 21.0332ZM18.7451 19.7676L19.0003 19.9188L19.2554 19.7673L27.6929 14.7548L28.4174 14.3244L27.6924 13.8948L19.2549 8.89481L18.9997 8.74357L18.7446 8.89509L10.3071 13.9076L9.58264 14.338L10.3076 14.7676L18.7451 19.7676Z" stroke="white"/>
</g>
<defs>
<linearGradient id="paint0_linear_2_246" x1="0" y1="16.5" x2="38" y2="16.5" gradientUnits="userSpaceOnUse">
<stop stop-color="#007BFF"/>
<stop offset="1" stop-color="#66A6FF"/>
</linearGradient>
<clipPath id="clip0_2_246">
<rect width="20" height="20" fill="white" transform="translate(9 6.5)"/>
</clipPath>
</defs>
</svg>
